# xmcd
#
# Track frame offsets: 
#        150
#        17550
#        36316
#        51550
#        76694
#        94358
#        110467
#        126449
#        144803
#        168837
#        184262
#        201699
#        220575
#
# Disc length: 3161 seconds
#
# Revision: 0
# Processed by: cddbd v1.5.2PL0 Copyright (c) Steve Scherf et al.
# Submitted via: ExactAudioCopy v0.95b4
#
DISCID=b80c570d
DTITLE=The Bellamy Brothers - Jesus Is Coming
DYEAR=2007
DGENRE=
TTITLE0=Drug Problem
TTITLE1=Wings Of The Wind
TTITLE2=Lord Help Me Be The Kind Of Person
TTITLE3=Grandma's God
TTITLE4=Faith Came Back To Me
TTITLE5=Spiritually Bankrupt
TTITLE6=I Ain't Going To Hell
TTITLE7=Old Hippie III
TTITLE8=Beautiful Night
TTITLE9=You're The World
TTITLE10=I'll Fly Away
TTITLE11=Jesus Is Coming
TTITLE12=Let Your Love Flow
EXTD=
EXTT0=
EXTT1=
EXTT2=
EXTT3=
EXTT4=
EXTT5=
EXTT6=
EXTT7=
EXTT8=
EXTT9=
EXTT10=
EXTT11=
EXTT12=
PLAYORDER=
